# xmcd
#
# Track frame offsets:
#	150
#	11618
#	24536
#	54395
#	68598
#	85983
#	106498
#	124526
#	136062
#	154347
#	170162
#
# Disc length: 2441 seconds
#
# Revision: 1
# Processed by: cddbd v1.5.2PL0 Copyright (c) Steve Scherf et al.
# Submitted via: audiograbber 1.83.01
#
DISCID=8a09870b
DTITLE=Oscar Ovidio - El Fin Del Mundo
DYEAR=2008
DGENRE=Norteño
TTITLE0=Profetas Mentirosos
TTITLE1=El Fin Del Mundo
TTITLE2=El Corrido de Castañeda
TTITLE3=El Dios de Toda Ciencia
TTITLE4=Encontré Un Amor
TTITLE5=Apariencias
TTITLE6=Que Lindo Es Mi Cristo
TTITLE7=El Rico Y Lázaro
TTITLE8=El Exborracho
TTITLE9=Las Mañanitas
TTITLE10=El Fin del Mundo (pista)
EXTD=
EXTT0=
EXTT1=
EXTT2=
EXTT3=
EXTT4=
EXTT5=
EXTT6=
EXTT7=
EXTT8=
EXTT9=
EXTT10=
PLAYORDER=
